<?xml version="1.0" standalone="no"?>
<!DOCTYPE svg PUBLIC "-//W3C//DTD SVG 20010904//EN"
 "http://www.w3.org/TR/2001/REC-SVG-20010904/DTD/svg10.dtd">
<svg version="1.0" xmlns="http://www.w3.org/2000/svg"
 width="512.000000pt" height="512.000000pt" viewBox="0 0 512.000000 512.000000"
 preserveAspectRatio="xMidYMid meet">
<metadata>
Created by potrace 1.14, written by Peter Selinger 2001-2017
</metadata>
<g transform="translate(0.000000,512.000000) scale(0.100000,-0.100000)"
fill="#000000" stroke="none">
<path d="M446 4688 c-35 -4 -92 -24 -140 -47 -130 -63 -228 -173 -278 -312
l-23 -64 -2 -1515 c-3 -1673 -7 -1568 60 -1695 47 -88 148 -185 238 -228 41
-19 98 -40 127 -46 33 -7 200 -11 445 -11 l392 0 24 -42 c21 -37 53 -77 102
-129 33 -34 126 -97 179 -121 295 -135 652 -31 821 238 l34 54 136 0 c121 0
137 -2 143 -17 4 -10 13 -30 21 -45 18 -31 152 -168 165 -168 5 0 15 -6 23
-14 23 -24 143 -75 212 -91 268 -63 553 55 701 289 l29 46 395 0 c436 0 460 3
578 62 84 42 189 147 231 230 66 133 63 56 59 1703 l-5 1490 -21 66 c-54 164
-189 299 -352 350 -53 17 -97 22 -239 24 -169 4 -174 3 -196 -19 l-23 -23 0
-444 c0 -244 -1 -448 -1 -454 -1 -6 -120 -10 -335 -10 -300 0 -336 -2 -353
-17 -10 -10 -19 -27 -20 -39 -2 -26 -27 -55 -55 -62 -24 -7 -68 32 -68 60 0
10 -7 27 -16 38 -15 20 -28 20 -1307 20 l-1292 0 -1 458 c0 420 -1 459 -17
475 -15 14 -39 17 -165 18 -81 0 -173 -3 -206 -8z"/>
</g>
</svg>
